<svg width="24" height="24" viewBox="0 0 24 24" fill="none" xmlns="http://www.w3.org/2000/svg">
<path d="M11.4 21.6021C16.7019 21.6021 20.9999 17.3036 20.9999 12.0011C20.9999 6.69856 16.7019 2.40002 11.4 2.40002C6.09808 2.40002 1.80005 6.69856 1.80005 12.0011C1.80005 17.3036 6.09808 21.6021 11.4 21.6021Z" fill="#8CB2FE"/>
<path d="M11.3996 19.1497C15.3472 19.1497 18.5473 15.9492 18.5473 12.0011C18.5473 8.05306 15.3472 4.85254 11.3996 4.85254C7.45199 4.85254 4.25183 8.05306 4.25183 12.0011C4.25183 15.9492 7.45199 19.1497 11.3996 19.1497Z" fill="white"/>
<path d="M8.90534 19.1341L8.75928 18.7626C9.857 18.3313 12.5528 16.9938 13.889 13.8885C15.911 9.18842 12.8649 4.88889 12.7342 4.70858L13.0577 4.47406C13.1935 4.66236 16.3669 9.14049 14.2559 14.046C12.8598 17.2888 10.0493 18.6845 8.90534 19.1341Z" fill="#8CB2FE"/>
<path d="M4.43199 14.3919L4.07312 14.2167C4.09081 14.1808 4.51416 13.322 5.42075 12.2983C6.25716 11.3534 7.67951 10.0878 9.70665 9.42419C12.5839 8.48212 15.8736 8.9677 19.4857 10.8673L19.2997 11.221C15.7869 9.3734 12.6016 8.89637 9.82875 9.80364C6.11281 11.0213 4.44854 14.3571 4.43199 14.3919Z" fill="#8CB2FE"/>
<path d="M12.94 19.934C11.7619 15.2048 9.21155 13.0548 7.28026 12.0836C5.18352 11.0297 3.33783 11.0936 3.319 11.0947L3.30188 10.6953C3.38061 10.6919 5.25428 10.6234 7.44059 11.7173C8.7349 12.3674 9.87254 13.2911 10.7748 14.4242C11.9319 15.8622 12.7911 17.6835 13.3274 19.837L12.94 19.934Z" fill="#8CB2FE"/>
<path d="M14.7764 11.0138C15.6722 11.0138 16.3984 10.2875 16.3984 9.39152C16.3984 8.49558 15.6722 7.76929 14.7764 7.76929C13.8805 7.76929 13.1543 8.49558 13.1543 9.39152C13.1543 10.2875 13.8805 11.0138 14.7764 11.0138Z" fill="#3971E5"/>
<path d="M6.60019 13.2022C7.49603 13.2022 8.22224 12.4759 8.22224 11.58C8.22224 10.6841 7.49603 9.95776 6.60019 9.95776C5.70436 9.95776 4.97815 10.6841 4.97815 11.58C4.97815 12.4759 5.70436 13.2022 6.60019 13.2022Z" fill="#3971E5"/>
<path d="M12.092 18.405C12.9878 18.405 13.7141 17.6787 13.7141 16.7828C13.7141 15.8868 12.9878 15.1605 12.092 15.1605C11.1962 15.1605 10.47 15.8868 10.47 16.7828C10.47 17.6787 11.1962 18.405 12.092 18.405Z" fill="#3971E5"/>
</svg>
