<svg width="24" height="24" viewBox="0 0 24 24" fill="none" xmlns="http://www.w3.org/2000/svg">
<path d="M23.22 14.599H11.36C10.9584 14.599 10.6328 14.9246 10.6328 15.3263V18.0474C10.6328 18.449 10.9584 18.7746 11.36 18.7746H23.22C23.6216 18.7746 23.9472 18.449 23.9472 18.0474V15.3263C23.9472 14.9246 23.6216 14.599 23.22 14.599Z" fill="#8CB2FE"/>
<path d="M22.0601 15.951H21.1596C21.0019 15.951 20.874 16.0789 20.874 16.2366V17.1372C20.874 17.2949 21.0019 17.4228 21.1596 17.4228H22.0601C22.2178 17.4228 22.3457 17.2949 22.3457 17.1372V16.2366C22.3457 16.0789 22.2178 15.951 22.0601 15.951Z" fill="white"/>
<path d="M23.172 8.49951H11.312C10.9104 8.49951 10.5848 8.82512 10.5848 9.22678V11.9479C10.5848 12.3495 10.9104 12.6751 11.312 12.6751H23.172C23.5737 12.6751 23.8992 12.3495 23.8992 11.9479V9.22678C23.8992 8.82512 23.5737 8.49951 23.172 8.49951Z" fill="#8CB2FE"/>
<path d="M22.0126 9.85114H21.1121C20.9544 9.85114 20.8265 9.979 20.8265 10.1367V11.0373C20.8265 11.1951 20.9544 11.3229 21.1121 11.3229H22.0126C22.1703 11.3229 22.2982 11.1951 22.2982 11.0373V10.1367C22.2982 9.979 22.1703 9.85114 22.0126 9.85114Z" fill="white"/>
<path d="M23.22 2.40002H11.36C10.9584 2.40002 10.6328 2.72563 10.6328 3.12729V5.84839C10.6328 6.25005 10.9584 6.57566 11.36 6.57566H23.22C23.6216 6.57566 23.9472 6.25005 23.9472 5.84839V3.12729C23.9472 2.72563 23.6216 2.40002 23.22 2.40002Z" fill="#8CB2FE"/>
<path d="M22.0601 3.75122H21.1596C21.0019 3.75122 20.874 3.87908 20.874 4.03681V4.93743C20.874 5.09516 21.0019 5.22302 21.1596 5.22302H22.0601C22.2178 5.22302 22.3457 5.09516 22.3457 4.93743V4.03681C22.3457 3.87908 22.2178 3.75122 22.0601 3.75122Z" fill="white"/>
<path d="M16.7384 22.2104C18.556 22.2104 20.1731 20.9956 20.6067 19.2303C20.7543 18.6452 20.7559 18.0328 20.6114 17.447C20.0681 15.2911 17.5087 13.877 15.0934 14.7577C15.0728 12.3382 13.5527 10.2513 11.4223 9.61507C9.7621 9.1196 7.91193 9.55463 6.61496 10.7003C5.27482 11.8839 4.99789 13.4115 4.93347 13.8611C2.40527 13.8345 0.387767 15.4637 0.0922462 17.2563C-0.273669 19.4707 1.93709 22.2423 5.26485 22.1885L16.7384 22.2104Z" fill="#3971E5"/>
</svg>