<svg width="24" height="24" viewBox="0 0 24 24" fill="none" xmlns="http://www.w3.org/2000/svg">
<path d="M11.3639 16.9315L7.69991 15.0722C7.5645 15.0049 7.4468 14.9068 7.35628 14.7857C7.26575 14.6646 7.20494 14.5239 7.17877 14.375L6.64963 14.656C6.45201 14.7594 6.28678 14.9154 6.17217 15.1067C6.05755 15.298 5.99798 15.5173 6.00005 15.7403C6.00213 15.9634 6.06576 16.1815 6.18392 16.3707C6.30209 16.5599 6.47018 16.7127 6.66969 16.8124L11.2235 19.126C11.4464 19.2387 11.6944 19.2924 11.944 19.2819V17.0579C11.743 17.0665 11.5431 17.0229 11.3639 16.9315Z" fill="#3971E5"/>
<path d="M11.2256 15.5827L7.99379 13.9402L7.35626 13.6164C7.27179 13.7308 7.21328 13.8623 7.18487 14.0017C7.15645 14.141 7.15879 14.2849 7.19173 14.4233C7.22466 14.5617 7.28741 14.6912 7.37556 14.8028C7.46372 14.9145 7.57516 15.0055 7.70212 15.0696L11.3661 16.9316C11.5456 17.0221 11.7454 17.0648 11.9461 17.0554V15.7413C11.6964 15.751 11.4483 15.6964 11.2256 15.5827V15.5827Z" fill="#D9E5FF"/>
<path d="M11.364 13.1672L10.3839 12.6695L9.64404 12.2935L7.69997 11.3059C7.48982 11.201 7.32486 11.0235 7.2357 10.8062C7.23486 10.8055 7.2338 10.8051 7.2327 10.8051C7.2316 10.8051 7.23054 10.8055 7.22969 10.8062L6.65773 11.1099C6.46057 11.2146 6.29592 11.3715 6.18176 11.5634C6.0676 11.7552 6.0083 11.9747 6.0103 12.198C6.0123 12.4212 6.07555 12.6397 6.19313 12.8295C6.31071 13.0193 6.4781 13.1731 6.6771 13.2743L7.35411 13.6182L7.99167 13.942L11.2235 15.5846C11.4452 15.6967 11.6918 15.7504 11.94 15.7405C11.9411 15.7403 11.9421 15.7397 11.9429 15.7389C11.9436 15.738 11.944 15.7369 11.944 15.7358V13.2984C11.944 13.2972 11.9435 13.296 11.9427 13.2951C11.9418 13.2942 11.9406 13.2937 11.9393 13.2937C11.7399 13.3012 11.5419 13.2577 11.364 13.1672V13.1672Z" fill="#3971E5"/>
<path d="M11.2256 11.8674L10.8282 11.6667L8.16166 10.3118L7.3321 9.89032C7.25415 10.005 7.20164 10.1351 7.17808 10.2718C7.15452 10.4085 7.16046 10.5486 7.19549 10.6828C7.23053 10.817 7.29386 10.9422 7.38123 11.0499C7.46859 11.1577 7.57799 11.2454 7.70206 11.3074L9.64613 12.295L10.386 12.6709L11.3661 13.1687C11.5456 13.2591 11.7453 13.302 11.9461 13.2932V12.022C11.6967 12.0329 11.4486 11.9796 11.2256 11.8674V11.8674Z" fill="#D9E5FF"/>
<path d="M11.2148 4.96941L6.64963 7.3941C6.45201 7.49748 6.28678 7.65343 6.17217 7.84476C6.05755 8.0361 5.99798 8.25537 6.00005 8.47841C6.00213 8.70145 6.06576 8.91959 6.18392 9.10876C6.30209 9.29793 6.47018 9.45079 6.66969 9.55047L7.32998 9.885L8.15951 10.3065L10.8261 11.6613L11.2235 11.8621C11.4464 11.9748 11.6944 12.0284 11.944 12.018V4.80348C11.6906 4.79443 11.4393 4.85162 11.2148 4.96941V4.96941Z" fill="#3971E5"/>
<path d="M12.5241 16.9316L16.1881 15.0696C16.3236 15.0024 16.4414 14.9042 16.532 14.7832C16.6226 14.6621 16.6836 14.5214 16.7099 14.3724L17.2384 14.6535C17.436 14.7568 17.6013 14.9127 17.716 15.104C17.8307 15.2953 17.8903 15.5145 17.8883 15.7376C17.8863 15.9606 17.8227 16.1787 17.7046 16.368C17.5865 16.5572 17.4185 16.7101 17.219 16.8098L12.6652 19.1234C12.4421 19.2361 12.1938 19.2898 11.9441 19.2793V17.0554C12.1449 17.0649 12.3447 17.0222 12.5241 16.9316V16.9316Z" fill="#9ABBFE"/>
<path d="M16.5346 13.6164L15.8971 13.9402L12.6652 15.5827C12.4421 15.6954 12.1938 15.7491 11.9441 15.7386V17.0554C12.1449 17.0649 12.3447 17.0222 12.5241 16.9316L16.1881 15.0696C16.3236 15.0023 16.4414 14.9042 16.532 14.7831C16.6226 14.662 16.6836 14.5214 16.7099 14.3724C16.7337 14.2411 16.7305 14.1063 16.7003 13.9763C16.6702 13.8463 16.6138 13.7238 16.5346 13.6164V13.6164Z" fill="white"/>
<path d="M17.2385 11.112L16.6544 10.8022C16.5651 11.0217 16.3985 11.2009 16.1862 11.306L14.2428 12.2936L13.5029 12.6696L12.5221 13.1673C12.3427 13.2579 12.1429 13.3008 11.9421 13.2918V15.7412C12.1919 15.7517 12.4402 15.698 12.6633 15.5853L15.8951 13.9428L16.5327 13.619L17.2171 13.2711C17.4173 13.1718 17.5862 13.019 17.705 12.8296C17.8237 12.6402 17.8878 12.4216 17.89 12.1981C17.8922 11.9746 17.8325 11.7548 17.7175 11.5631C17.6025 11.3714 17.4367 11.2153 17.2385 11.112V11.112Z" fill="#9ABBFE"/>
<path d="M16.5587 9.88892L15.7292 10.3104L13.062 11.6653L12.6652 11.866C12.4421 11.9787 12.1938 12.0324 11.9441 12.0219V13.2931C12.1449 13.3021 12.3446 13.2592 12.5241 13.1687L13.5048 12.6709L14.2447 12.2949L16.1881 11.3073C16.3121 11.2453 16.4214 11.1575 16.5087 11.0497C16.596 10.942 16.6593 10.8169 16.6944 10.6828C16.7295 10.5486 16.7355 10.4085 16.7121 10.2719C16.6887 10.1352 16.6364 10.0051 16.5587 9.89026V9.88892Z" fill="white"/>
<path d="M17.2384 7.39672L12.6733 4.96939C12.4491 4.85053 12.1977 4.7924 11.9441 4.80078V12.0206C12.1938 12.0311 12.4421 11.9774 12.6652 11.8647L13.062 11.664L15.7292 10.3092L16.5587 9.88763L17.219 9.5531C17.4185 9.45335 17.5865 9.30046 17.7046 9.11125C17.8227 8.92205 17.8863 8.70391 17.8883 8.48087C17.8903 8.25784 17.8307 8.03856 17.716 7.84726C17.6013 7.65596 17.436 7.50004 17.2384 7.39672V7.39672Z" fill="#9ABBFE"/>
</svg>
