<svg width="24" height="24" viewBox="0 0 24 24" fill="none" xmlns="http://www.w3.org/2000/svg">
<path d="M8.6676 11.9637V10.425H4.97588V11.9637H8.6676Z" fill="#8CB2FE"/>
<path d="M18.9069 11.9637V10.425H15.2151V11.9637H18.9069Z" fill="#8CB2FE"/>
<path d="M12.774 4.23792H11.2356V7.93007H12.774V4.23792Z" fill="#8CB2FE"/>
<path d="M6.8031 9.49597V7.73267L2.95728 11.1117L6.8031 14.6557V12.8918L5.10566 11.1942L6.8031 9.49597Z" fill="#8CB2FE"/>
<path d="M21.0425 11.2761L17.1967 7.73267V9.48458L18.906 11.1942L17.1967 12.9037V14.6557L21.0425 11.2761Z" fill="#8CB2FE"/>
<path d="M13.9574 6.24577H15.4665L12.0873 2.40002L8.54431 6.24577H10.0529L12.0054 4.2936L13.9574 6.24577Z" fill="#8CB2FE"/>
<path d="M12.8025 16.4345V13.7154C13.4046 13.5252 13.9187 13.1258 14.2519 12.5895C14.585 12.0531 14.7153 11.4152 14.6191 10.7912C14.5229 10.1671 14.2066 9.59805 13.7273 9.18698C13.248 8.7759 12.6375 8.54993 12.0061 8.54993C11.3748 8.54993 10.7643 8.7759 10.285 9.18698C9.80574 9.59805 9.4894 10.1671 9.39319 10.7912C9.29698 11.4152 9.42724 12.0531 9.76044 12.5895C10.0936 13.1258 10.6077 13.5252 11.2098 13.7154V16.4345C10.6077 16.6247 10.0936 17.0241 9.76044 17.5604C9.42724 18.0968 9.29698 18.7347 9.39319 19.3588C9.4894 19.9828 9.80574 20.5519 10.285 20.9629C10.7643 21.374 11.3748 21.6 12.0061 21.6C12.6375 21.6 13.248 21.374 13.7273 20.9629C14.2066 20.5519 14.5229 19.9828 14.6191 19.3588C14.7153 18.7347 14.585 18.0968 14.2519 17.5604C13.9187 17.0241 13.4046 16.6247 12.8025 16.4345V16.4345Z" fill="#3971E5"/>
<path d="M12.006 20.1812C12.6825 20.1812 13.2308 19.6328 13.2308 18.9563C13.2308 18.2797 12.6825 17.7313 12.006 17.7313C11.3296 17.7313 10.7812 18.2797 10.7812 18.9563C10.7812 19.6328 11.3296 20.1812 12.006 20.1812Z" fill="white"/>
</svg>