<svg width="24" height="24" viewBox="0 0 24 24" fill="none" xmlns="http://www.w3.org/2000/svg">
<path d="M11.3989 18.7732C15.1314 18.7732 18.1572 15.7471 18.1572 12.0141C18.1572 8.28117 15.1314 5.25507 11.3989 5.25507C7.66642 5.25507 4.64062 8.28117 4.64062 12.0141C4.64062 15.7471 7.66642 18.7732 11.3989 18.7732Z" fill="#3971E5"/>
<path d="M11.3994 17.1626C14.2504 17.1626 16.5616 14.8512 16.5616 11.9999C16.5616 9.14863 14.2504 6.83722 11.3994 6.83722C8.54848 6.83722 6.2373 9.14863 6.2373 11.9999C6.2373 14.8512 8.54848 17.1626 11.3994 17.1626Z" fill="white"/>
<path d="M13.9571 10.2971L18.7718 5.85472L18.1302 5.15912L13.3125 9.60526C13.5615 9.80154 13.7789 10.0349 13.9571 10.2971V10.2971Z" fill="#8CB2FE"/>
<path d="M14.4457 12.4734H20.9981V11.5269H14.4412C14.4664 11.6882 14.4792 11.8511 14.4794 12.0143C14.4795 12.168 14.4683 12.3214 14.4457 12.4734V12.4734Z" fill="#8CB2FE"/>
<path d="M11.8718 8.96892V2.40002H10.9255V8.96892C11.2392 8.921 11.5582 8.921 11.8718 8.96892V8.96892Z" fill="#8CB2FE"/>
<path d="M9.54059 9.5568L4.59557 5.08594L3.96069 5.78827L8.88251 10.2382C9.0653 9.97837 9.2873 9.7485 9.54059 9.5568V9.5568Z" fill="#8CB2FE"/>
<path d="M10.9255 15.0588V21.6H11.8718V15.0588C11.5582 15.1068 11.2392 15.1068 10.9255 15.0588V15.0588Z" fill="#8CB2FE"/>
<path d="M13.4186 14.3389L18.2018 18.6645L18.8367 17.9622L14.0302 13.6194C13.8646 13.8893 13.6583 14.132 13.4186 14.3389V14.3389Z" fill="#8CB2FE"/>
<path d="M8.35696 11.5269H1.80005V12.4734H8.35246C8.30503 12.1595 8.30655 11.8403 8.35696 11.5269V11.5269Z" fill="#8CB2FE"/>
<path d="M8.84032 13.7304L4.02258 18.1766L4.66495 18.8722L9.48269 14.426C9.23441 14.2282 9.01778 13.9936 8.84032 13.7304V13.7304Z" fill="#8CB2FE"/>
<path d="M14.4412 11.5266C14.3376 10.8838 14.0333 10.2903 13.5719 9.83085C13.1105 9.37144 12.5157 9.06971 11.8725 8.96886C11.5589 8.92094 11.2398 8.92094 10.9262 8.96886C10.4142 9.04845 9.93056 9.25592 9.52 9.57204C9.10945 9.88816 8.78526 10.3027 8.5774 10.7774C8.36953 11.252 8.28472 11.7715 8.33082 12.2876C8.37693 12.8038 8.55245 13.3 8.84115 13.7303C9.01861 13.9935 9.23524 14.2281 9.48352 14.4259C9.93683 14.7871 10.4829 15.013 11.059 15.0776C11.635 15.1421 12.2175 15.0427 12.7395 14.7907C13.2615 14.5387 13.7018 14.1444 14.0096 13.6532C14.3174 13.1619 14.4803 12.5938 14.4794 12.0141C14.4793 11.8508 14.4665 11.6879 14.4412 11.5266V11.5266Z" fill="#3971E5"/>
</svg>