<svg width="24" height="24" viewBox="0 0 24 24" fill="none" xmlns="http://www.w3.org/2000/svg">
<path d="M12 21.6C17.302 21.6 21.6 17.302 21.6 12C21.6 6.69809 17.302 2.40002 12 2.40002C6.69809 2.40002 2.40002 6.69809 2.40002 12C2.40002 17.302 6.69809 21.6 12 21.6Z" fill="#9ABBFE"/>
<path d="M12.0233 19.5337C16.2072 19.5337 19.599 16.1419 19.599 11.9579C19.599 7.77392 16.2072 4.38214 12.0233 4.38214C7.83929 4.38214 4.44751 7.77392 4.44751 11.9579C4.44751 16.1419 7.83929 19.5337 12.0233 19.5337Z" fill="white"/>
<path d="M11.9992 5.89154C9.42343 5.89154 7.33252 7.98245 7.33252 10.5582H16.6659C16.6598 7.97639 14.5749 5.89154 11.9992 5.89154Z" fill="#3971E5"/>
<path d="M12.0003 6.30872C9.65486 6.30872 7.75183 8.2966 7.75183 10.7572H16.2488C16.2427 8.2966 14.3458 6.30872 12.0003 6.30872Z" fill="white"/>
<path d="M16.2424 12.7085C16.1455 15.0721 14.2788 16.957 12 16.957V17.3752C14.5758 17.3752 16.6667 15.2843 16.6667 12.7085H16.2424Z" fill="#3971E5"/>
<path d="M17.8852 11.9452C17.8792 10.9937 16.7822 10.224 15.4368 10.2301L15.4489 13.6846C16.8004 13.6786 17.8913 12.8967 17.8852 11.9452Z" fill="#3971E5"/>
<path d="M6.13259 11.9574C6.13865 11.0059 7.23562 10.2362 8.58107 10.2422L8.56895 13.6968C7.21744 13.6846 6.12653 12.9089 6.13259 11.9574Z" fill="#3971E5"/>
<path d="M12.6727 17.8241H11.3212C10.9879 17.8241 10.7212 17.5574 10.7212 17.2241V16.6847C10.7212 16.3514 10.9879 16.0847 11.3212 16.0847H12.6727C13.006 16.0847 13.2727 16.3514 13.2727 16.6847V17.2241C13.2727 17.5574 13.006 17.8241 12.6727 17.8241Z" fill="#3971E5"/>
<path d="M12.0184 13.6904C13.5279 13.6904 14.7517 12.4667 14.7517 10.9571C14.7517 9.44751 13.5279 8.22375 12.0184 8.22375C10.5088 8.22375 9.28503 9.44751 9.28503 10.9571C9.28503 12.4667 10.5088 13.6904 12.0184 13.6904Z" fill="#3971E5"/>
</svg>