<svg width="24" height="24" viewBox="0 0 24 24" fill="none" xmlns="http://www.w3.org/2000/svg">
<path d="M20.2469 18.8H6.74228C6.41832 18.7979 6.0986 18.7261 5.80484 18.5894C5.51107 18.4526 5.25014 18.2542 5.03978 18.0075C4.82942 17.7609 4.67454 17.4718 4.58569 17.1599C4.49683 16.848 4.47607 16.5206 4.52481 16.2L5.99314 6.69997C6.07468 6.16829 6.34461 5.68373 6.75359 5.33487C7.16258 4.98601 7.6833 4.79614 8.22059 4.79997H21.7252C22.0522 4.79598 22.3761 4.86349 22.6744 4.99777C22.9726 5.13206 23.238 5.32989 23.452 5.57746C23.666 5.82503 23.8235 6.11637 23.9134 6.43115C24.0033 6.74593 24.0235 7.07656 23.9726 7.39997L22.4943 16.9C22.4143 17.436 22.142 17.9245 21.7284 18.2742C21.3148 18.6239 20.7881 18.8108 20.2469 18.8ZM8.22059 6.29997C8.04274 6.30005 7.87072 6.36348 7.7353 6.4789C7.59988 6.59432 7.50989 6.75421 7.48144 6.92997L5.99314 16.43C5.97788 16.5379 5.98509 16.6478 6.01432 16.7528C6.04354 16.8577 6.09414 16.9555 6.16294 17.04C6.23351 17.1218 6.32093 17.1875 6.4192 17.2323C6.51747 17.2772 6.62428 17.3003 6.73229 17.3H20.2469C20.4262 17.2995 20.5994 17.2347 20.735 17.1172C20.8707 16.9998 20.9597 16.8376 20.986 16.66L22.4643 7.15997C22.48 7.05363 22.473 6.94516 22.4437 6.84173C22.4145 6.7383 22.3636 6.64227 22.2945 6.55997C22.224 6.4781 22.1365 6.41248 22.0383 6.3676C21.94 6.32273 21.8332 6.29966 21.7252 6.29997H8.22059Z" fill="#3971E5"/>
<path d="M14.3037 13.28C13.8139 13.2796 13.3337 13.1447 12.9152 12.89L6.14297 8.88999C5.97077 8.78921 5.84562 8.62407 5.79505 8.43091C5.74447 8.23775 5.77261 8.03238 5.87328 7.85999C5.97394 7.6876 6.13889 7.5623 6.33183 7.51167C6.52478 7.46104 6.72991 7.48921 6.9021 7.58999L13.6744 11.59C13.8563 11.6907 14.0608 11.7435 14.2687 11.7435C14.4766 11.7435 14.6811 11.6907 14.863 11.59L22.7041 7.66999C22.8805 7.5826 23.0842 7.56822 23.2711 7.62998C23.458 7.69173 23.6131 7.82464 23.7029 7.99999C23.7869 8.17823 23.7984 8.38214 23.735 8.56871C23.6716 8.75527 23.5384 8.9099 23.3633 8.99999L15.5323 12.98C15.1528 13.1775 14.7313 13.2804 14.3037 13.28Z" fill="#8CB2FE"/>
<path d="M4.24515 8.29998H0.749145C0.550459 8.29998 0.359911 8.22096 0.219419 8.08031C0.0789275 7.93965 0 7.74889 0 7.54998C0 7.35106 0.0789275 7.1603 0.219419 7.01965C0.359911 6.87899 0.550459 6.79998 0.749145 6.79998H4.24515C4.44384 6.79998 4.63439 6.87899 4.77488 7.01965C4.91537 7.1603 4.9943 7.35106 4.9943 7.54998C4.9943 7.74889 4.91537 7.93965 4.77488 8.08031C4.63439 8.22096 4.44384 8.29998 4.24515 8.29998Z" fill="#3971E5"/>
<path d="M3.24629 12.3H0.749145C0.550459 12.3 0.359911 12.221 0.219419 12.0804C0.0789275 11.9397 0 11.7489 0 11.55C0 11.3511 0.0789275 11.1603 0.219419 11.0197C0.359911 10.879 0.550459 10.8 0.749145 10.8H3.24629C3.44498 10.8 3.63553 10.879 3.77602 11.0197C3.91651 11.1603 3.99544 11.3511 3.99544 11.55C3.99544 11.7489 3.91651 11.9397 3.77602 12.0804C3.63553 12.221 3.44498 12.3 3.24629 12.3Z" fill="#8CB2FE"/>
<path d="M2.24743 16.3H0.749145C0.550459 16.3 0.359911 16.221 0.219419 16.0803C0.0789275 15.9397 0 15.7489 0 15.55C0 15.3511 0.0789275 15.1603 0.219419 15.0197C0.359911 14.879 0.550459 14.8 0.749145 14.8H2.24743C2.44612 14.8 2.63667 14.879 2.77716 15.0197C2.91765 15.1603 2.99658 15.3511 2.99658 15.55C2.99658 15.7489 2.91765 15.9397 2.77716 16.0803C2.63667 16.221 2.44612 16.3 2.24743 16.3Z" fill="#3971E5"/>
</svg>