<svg width="24" height="24" viewBox="0 0 24 24" fill="none" xmlns="http://www.w3.org/2000/svg">
<path d="M6.73466 6.12654L5.94768 6.19992L4.33149 6.35193C4.04892 6.37814 3.9248 6.71886 4.1255 6.91805L4.83853 7.62569C4.0542 8.89945 3.59998 10.396 3.59998 11.9974C3.59998 13.7979 4.17568 15.4674 5.1528 16.8381L5.166 15.7924C5.16864 15.5801 5.36935 15.4255 5.57533 15.4727L5.94768 15.5565C5.32709 14.5108 4.97058 13.2947 4.97058 11.9974C4.97058 10.776 5.28747 9.62544 5.84205 8.62163L6.2461 9.02263C6.44417 9.2192 6.78219 9.10388 6.81653 8.82606L7.03308 7.03861L7.0991 6.49608C7.12551 6.28641 6.94857 6.10557 6.73466 6.12654Z" fill="#A0BAFC"/>
<path d="M18.9959 6.16846L18.5047 6.56159C16.9518 4.75055 14.6411 3.59998 12.0636 3.59998C9.66046 3.59998 7.48969 4.60116 5.95007 6.20253L6.73705 6.12914C6.95096 6.10818 7.1279 6.28902 7.10149 6.49869L7.03547 7.04122C8.32156 5.75698 10.1015 4.96022 12.0636 4.96022C14.2106 4.96022 16.1358 5.91423 17.4378 7.41338L16.6613 8.03454C16.4448 8.20752 16.524 8.5561 16.796 8.61638L18.4783 9.00165L19.1015 9.14318C19.3101 9.19035 19.5082 9.03572 19.5108 8.82343L19.5214 8.03192L19.5425 6.42793C19.5452 6.14749 19.2177 5.98761 18.9985 6.16584L18.9959 6.16846Z" fill="#4B70E2"/>
<path d="M18.814 17.0529C19.8861 15.6455 20.5226 13.8948 20.5226 11.9972C20.5226 10.5662 20.1581 9.21645 19.5191 8.03442L19.5085 8.82594C19.5059 9.03823 19.3052 9.19286 19.0992 9.14568L18.4759 9.00416C18.909 9.91361 19.152 10.9279 19.152 11.9972C19.152 13.4623 18.6978 14.8252 17.9214 15.9548L17.6229 15.5879C17.4486 15.3729 17.0974 15.4516 17.0367 15.7215L16.6564 17.3517L16.5032 18.0096C16.4557 18.2166 16.6115 18.4132 16.8254 18.4158L17.5015 18.4237L19.2418 18.4446C19.5243 18.4473 19.6854 18.1223 19.5059 17.9047L18.814 17.0529Z" fill="#A0BAFC"/>
<path d="M16.8252 18.4158C16.6113 18.4132 16.4555 18.214 16.503 18.0096L16.6562 17.3518C15.4176 18.4001 13.812 19.037 12.0611 19.037C10.2152 19.037 8.53294 18.332 7.26797 17.1814L8.01534 16.5838C8.23189 16.4109 8.15266 16.0623 7.88065 16.002L5.94755 15.5591L5.5752 15.4752C5.36657 15.428 5.1685 15.5826 5.16586 15.7949L5.15266 16.8407L5.13417 18.1904C5.13153 18.4709 5.45899 18.6308 5.67819 18.4525L6.19051 18.0437C7.71428 19.5009 9.78206 20.3999 12.0585 20.3999C14.1289 20.3999 16.025 19.6581 17.4986 18.4289L16.8226 18.4211L16.8252 18.4158Z" fill="#4B70E2"/>
<path d="M11.5541 13.5804V10.071C11.5541 9.71196 11.4881 9.40532 11.356 9.14847C11.224 8.89424 11.0312 8.70029 10.7777 8.56925C10.5242 8.4382 10.2205 8.37268 9.86397 8.37268C9.50745 8.37268 9.20376 8.4382 8.95024 8.56925C8.69672 8.70029 8.50393 8.89424 8.37189 9.14847C8.23985 9.40269 8.17383 9.70934 8.17383 10.071V13.5804C8.17383 13.9369 8.23985 14.2435 8.37189 14.4977C8.50393 14.752 8.69672 14.9459 8.95024 15.0796C9.20376 15.2132 9.50745 15.2788 9.86397 15.2788C10.2205 15.2788 10.5242 15.2132 10.7777 15.0796C10.8648 15.0324 10.9441 14.9773 11.018 14.9171L11.7495 15.4308L12.2328 14.8201L11.4511 14.2749C11.5198 14.0705 11.5568 13.8399 11.5568 13.583L11.5541 13.5804ZM9.86133 14.4165C9.69231 14.4165 9.54707 14.385 9.42823 14.3221C9.30675 14.2592 9.21696 14.1675 9.15358 14.0443C9.0902 13.9237 9.05851 13.777 9.05851 13.6066V10.0422C9.05851 9.87184 9.0902 9.72506 9.15358 9.6045C9.21696 9.48394 9.30675 9.39221 9.42823 9.32669C9.54971 9.26379 9.69231 9.23234 9.86133 9.23234C10.0303 9.23234 10.1756 9.26379 10.2944 9.32669C10.4159 9.38959 10.5057 9.48132 10.5691 9.6045C10.6325 9.72506 10.6641 9.87184 10.6641 10.0422V13.6066C10.6641 13.6459 10.6641 13.6826 10.6589 13.7193L10.1571 13.3681L9.67383 13.9735L10.2178 14.3536C10.1148 14.3929 9.99601 14.4139 9.86133 14.4139V14.4165Z" fill="#4B70E2"/>
<path d="M15.7269 10.3907V10.1024C15.7269 9.74073 15.6661 9.42884 15.542 9.16937C15.4179 8.9099 15.2383 8.71334 15.0006 8.57705C14.763 8.44076 14.4778 8.37262 14.1424 8.37262C13.807 8.37262 13.5218 8.44076 13.2867 8.57705C13.0517 8.71334 12.8695 8.91253 12.7454 9.16937C12.6212 9.42884 12.5579 9.74073 12.5579 10.1077V13.5463C12.5579 13.9106 12.6212 14.2198 12.7454 14.4793C12.8695 14.7388 13.0517 14.9354 13.2894 15.0716C13.5271 15.2079 13.8123 15.2761 14.1424 15.2761C14.4725 15.2761 14.763 15.2079 15.0006 15.0716C15.2383 14.9354 15.4179 14.7362 15.542 14.4793C15.6661 14.2198 15.7269 13.9106 15.7269 13.5463V13.258H14.8264V13.5463C14.8264 13.7297 14.7999 13.887 14.7471 14.0154C14.6943 14.1465 14.6151 14.2461 14.5121 14.3142C14.4091 14.3823 14.285 14.4164 14.1424 14.4164C13.9998 14.4164 13.8756 14.3823 13.7753 14.3142C13.6749 14.2461 13.5957 14.1465 13.5403 14.0154C13.4848 13.8844 13.4584 13.7297 13.4584 13.5463V10.1077C13.4584 9.92157 13.4848 9.76432 13.5403 9.63327C13.5957 9.50223 13.6723 9.40263 13.7753 9.33449C13.8756 9.26635 13.9998 9.23227 14.1424 9.23227C14.285 9.23227 14.4091 9.26635 14.5121 9.33449C14.6151 9.40263 14.6943 9.50223 14.7471 9.63327C14.7999 9.76432 14.8264 9.91895 14.8264 10.1024V10.3907H15.7269Z" fill="#4B70E2"/>
</svg>