<svg width="24" height="24" viewBox="0 0 24 24" fill="none" xmlns="http://www.w3.org/2000/svg">
<path d="M23.4563 9.40698H23.0442V14.3039H23.4563V9.40698Z" fill="#3971E5"/>
<path fill-rule="evenodd" clip-rule="evenodd" d="M23.4182 14.131L23.0763 14.1382H22.9882C22.7142 14.1453 22.4981 15.2263 22.5004 15.6406L22.5078 16.6724C22.5101 17.0835 22.736 17.4148 23.01 17.4113L23.5071 17.4041C23.7811 17.4006 24.0023 17.0617 24 16.6501L23.9926 15.6184C23.9903 15.2077 23.7597 14.1302 23.4858 14.1338L23.4182 14.131Z" fill="#3971E5"/>
<path d="M18.0787 13.1655L17.7954 13.1036L17.2641 12.9052C17.2634 12.3917 17.1146 11.8899 16.8363 11.4625C16.5579 11.0352 16.1625 10.7013 15.6994 10.5026C15.2364 10.304 14.7263 10.2495 14.2331 10.346C13.7399 10.4424 13.2855 10.6855 12.9268 11.0448L12.5826 10.9916C12.5488 10.9289 12.496 10.8309 12.4308 10.7138C12.1335 10.1718 11.8976 9.77335 11.884 9.75113C11.5157 9.13564 8.45095 7.37926 6.11348 8.91262C5.862 9.07731 4.66746 9.86066 4.44276 11.3039C4.37111 11.7869 4.4099 12.2802 4.55608 12.7452L4.67251 13.5524H3.86877V13.556C2.4375 13.556 1.27478 14.7254 1.27478 16.1612C1.27478 17.5969 2.43905 18.7668 3.86877 18.7668H17.9013C19.2926 18.668 20.3995 17.5366 20.4957 16.1612C20.5974 14.7056 19.5422 13.3699 18.0787 13.1655Z" fill="white"/>
<path d="M20.6244 13.3945C20.0455 12.8079 19.2993 12.4245 18.4934 12.2996C18.3504 11.3792 17.8911 10.541 17.198 9.93569C16.5048 9.33039 15.6234 8.99763 14.7119 8.99719C14.2571 9.00227 13.8063 9.08475 13.378 9.24124C13.1913 9.31252 13.0104 9.39877 12.837 9.49919C12.4877 9.00473 11.6277 7.93487 10.1367 7.38128C9.55902 7.16272 8.94839 7.04923 8.33245 7.04596C5.51919 7.04596 3.2314 9.38133 3.2314 12.2532V12.3068C2.44293 12.4401 1.71429 12.8202 1.1458 13.3945C0.783321 13.7534 0.495103 14.1831 0.298269 14.6582C0.101434 15.1332 0 15.6439 0 16.1598C0 16.6758 0.101434 17.1864 0.298269 17.6615C0.495103 18.1365 0.783321 18.5663 1.1458 18.9252C1.87096 19.6575 2.84947 20.0675 3.86864 20.0661H17.9012C18.9205 20.0675 19.8991 19.6575 20.6244 18.9252C20.9869 18.5663 21.2751 18.1365 21.472 17.6615C21.6688 17.1864 21.7702 16.6758 21.7702 16.1598C21.7702 15.6439 21.6688 15.1332 21.472 14.6582C21.2751 14.1831 20.9869 13.7534 20.6244 13.3945ZM17.9012 18.7653H3.86864C2.43736 18.7653 1.27465 17.5958 1.27465 16.1596C1.27465 14.7235 2.43892 13.5544 3.86864 13.5544V13.5493H4.66966L4.55323 12.7421C4.52589 12.5788 4.50955 12.4137 4.50433 12.2481C4.50433 10.094 6.22085 8.34162 8.3309 8.34162C8.95185 8.34162 9.43463 8.51028 9.94613 8.70631C10.8257 9.04819 11.6207 9.58405 12.2747 10.2758L12.5782 10.9901L12.9224 11.0433C13.281 10.6837 13.7353 10.4402 14.2286 10.3435C14.7218 10.2468 15.232 10.3011 15.6953 10.4995C16.1585 10.698 16.5541 11.0318 16.8326 11.4592C17.1111 11.8866 17.2601 12.3885 17.2609 12.902V13.352L17.9746 13.3838C18.2245 13.4195 19.0593 13.5723 19.7318 14.3167C19.9604 14.5695 20.4925 15.2791 20.4925 16.1581C20.4944 17.597 19.3325 18.7653 17.9012 18.7653Z" fill="#3971E5"/>
<path d="M11.9308 4.43829L13.0372 5.63435L16.5397 9.41895H20.3357L21.8333 9.41578L23.4 9.41856L18.4453 4.83354L11.9308 4.43829Z" fill="#3971E5"/>
<path d="M23.6845 9.0911L18.7332 4.50886C18.6607 4.4411 18.5675 4.40101 18.4693 4.39537L11.9564 4.00012H11.9323C11.8512 4.00081 11.7718 4.02469 11.7032 4.06908C11.6347 4.11347 11.5796 4.1766 11.5443 4.25132C11.5076 4.33106 11.4954 4.42029 11.5092 4.50727C11.5231 4.59425 11.5623 4.67491 11.6219 4.73863C12.0537 5.20531 12.4855 5.67225 12.9173 6.13945L16.2308 9.72524C16.2707 9.76942 16.3194 9.80433 16.3737 9.82763C16.4272 9.85036 16.4849 9.86144 16.5429 9.86017L20.1746 9.85739H20.7769L21.6622 9.85421L23.4055 9.86056C23.4926 9.86021 23.5776 9.83276 23.6492 9.78186C23.7207 9.73096 23.7754 9.65901 23.806 9.57556C23.8366 9.49212 23.8417 9.40113 23.8205 9.31467C23.7994 9.22821 23.753 9.15038 23.6876 9.0915L23.6845 9.0911ZM21.8329 9.41611L20.3353 9.41928H16.5398L13.0372 5.63468L11.9308 4.43862L18.4453 4.83546L23.3996 9.42087L21.8329 9.41611Z" fill="#3971E5"/>
<path d="M21.4045 9.84236L20.7746 9.85744H20.1595L20.156 9.85387L20.1587 9.85705H16.5359C16.4779 9.85747 16.4204 9.84571 16.367 9.8225C16.3136 9.79929 16.2654 9.76513 16.2254 9.72212L12.8762 6.09863L11.5012 9.58085C11.7 10.0495 11.9577 10.4897 12.2677 10.8904C14.4022 13.642 18.3118 13.5051 19.18 13.2781L20.1743 13.0127C20.5846 11.9552 20.9947 10.8985 21.4045 9.84236Z" fill="#9ABBFE"/>
<path d="M7.06654 14.283H6.37341V17.5089H8.60803V16.9105H7.06654V14.283Z" fill="#3971E5"/>
<path d="M10.7212 16.5001H10.7146L9.97723 14.283H8.99536V17.5089H9.64813V15.2469H9.6555L10.4317 17.5089H10.9665L11.7427 15.2239H11.7535V17.5089H12.4028V14.283H11.4256L10.7212 16.5001Z" fill="#3971E5"/>
<path d="M14.5337 15.6128C14.1095 15.4997 13.844 15.4207 13.7443 15.3747C13.6445 15.3287 13.5933 15.243 13.5933 15.1223C13.5907 15.0675 13.6027 15.0131 13.628 14.9647C13.6533 14.9164 13.6909 14.8759 13.7369 14.8477C13.8382 14.7857 13.9546 14.7543 14.0726 14.7572C14.4708 14.7572 14.6773 14.9191 14.6959 15.2465H15.3669C15.3732 15.0314 15.3081 14.8205 15.1822 14.6481C15.0651 14.4914 14.9064 14.3725 14.725 14.3056C14.5245 14.2364 14.3137 14.2034 14.1021 14.208C13.8073 14.2021 13.5182 14.2917 13.2762 14.464C13.0403 14.633 12.9223 14.8743 12.9223 15.1826C12.9197 15.3126 12.9463 15.4414 12.9999 15.5592C13.0507 15.6669 13.1284 15.759 13.225 15.8263C13.3171 15.8924 13.416 15.9478 13.52 15.9918C13.6322 16.0384 13.7481 16.0749 13.8665 16.1009C13.9181 16.116 13.9919 16.135 14.0912 16.1612C14.1906 16.1874 14.2682 16.2065 14.3163 16.2215C14.3788 16.2395 14.4404 16.2608 14.5007 16.2854C14.5588 16.3055 14.6136 16.3346 14.6629 16.3719C14.7003 16.4028 14.7327 16.4397 14.7587 16.4811C14.7865 16.5274 14.8 16.5812 14.7976 16.6354C14.7988 16.6823 14.7899 16.7289 14.7715 16.7719C14.753 16.8149 14.7255 16.8531 14.6908 16.8839C14.6242 16.9457 14.5428 16.9885 14.4549 17.0081C14.3657 17.0282 14.2746 17.0384 14.1832 17.0382C13.9802 17.0382 13.8106 16.9894 13.6818 16.8914C13.5529 16.7934 13.4878 16.643 13.4878 16.4438H12.8167C12.8125 16.6219 12.8492 16.7986 12.9239 16.9597C12.9915 17.1042 13.0959 17.2276 13.2262 17.3168C13.3563 17.4075 13.5007 17.4746 13.6531 17.5152C13.8189 17.5611 13.9901 17.5838 14.1619 17.5827C14.5822 17.5827 14.9027 17.4886 15.1321 17.297C15.2426 17.2091 15.3312 17.0958 15.3909 16.9663C15.4505 16.8368 15.4794 16.6948 15.4752 16.5517C15.4752 16.0584 15.162 15.7461 14.5387 15.6108L14.5337 15.6128Z" fill="#3971E5"/>
</svg>