<svg width="24" height="24" viewBox="0 0 24 24" fill="none" xmlns="http://www.w3.org/2000/svg">
<path d="M7.19751 14.2497V20.4478L12.005 18.4612V12.4221L7.19751 14.2497Z" fill="white"/>
<path d="M16.8025 14.2497V20.4478L21.6 18.4612V12.4221L16.8025 14.2497Z" fill="white"/>
<path d="M12.005 6.21416V12.4221L16.8025 10.4256V4.38654L12.005 6.21416Z" fill="white"/>
<path d="M16.8025 14.2497V20.4478L12.005 18.4612V12.4221L16.8025 14.2497Z" fill="#3971E5"/>
<path d="M12.005 6.21416V12.4221L7.19751 10.4256V4.38654L12.005 6.21416Z" fill="#3971E5"/>
<path d="M7.19753 14.2497V20.4478L2.40002 18.4612V12.4221L7.19753 14.2497Z" fill="#3971E5"/>
<path d="M12.005 12.4221L16.8025 14.2498L21.6 12.4221L16.8025 10.4257L12.005 12.4221Z" fill="#8CB2FE"/>
<path d="M2.40002 12.4221L7.19753 14.2498L12.005 12.4221L7.19753 10.4257L2.40002 12.4221Z" fill="#8CB2FE"/>
<path d="M7.19751 4.38657L12.005 6.2142L16.8025 4.38657L12.005 2.40002L7.19751 4.38657Z" fill="#8CB2FE"/>
</svg>