<svg width="24" height="24" viewBox="0 0 24 24" fill="none" xmlns="http://www.w3.org/2000/svg">
<path d="M18.1836 14.9486C19.9947 14.952 21.6056 13.7238 22.0055 11.9577C22.1341 11.4048 22.1301 10.8292 21.9939 10.2781C21.4615 8.16413 18.9519 6.77883 16.583 7.6406C16.5631 5.26866 15.0737 3.22194 12.984 2.59825C11.3581 2.11247 9.54142 2.53925 8.26948 3.66244C6.9557 4.82268 6.68403 6.32119 6.62297 6.76169C4.14359 6.73561 2.16366 8.33292 1.87552 10.0908C1.5174 12.2624 3.68531 14.9801 6.94815 14.9273L18.1836 14.9486Z" fill="#8CB2FE"/>
<path d="M17.3723 11.158H6.62741C6.32694 11.158 6.08337 11.4016 6.08337 11.7021V21.056C6.08337 21.3565 6.32694 21.6002 6.62741 21.6002H17.3723C17.6727 21.6002 17.9163 21.3565 17.9163 21.056V11.7021C17.9163 11.4016 17.6727 11.158 17.3723 11.158Z" fill="white"/>
<path d="M16.1954 12.0753H7.80366C7.36945 12.0753 7.01746 12.4274 7.01746 12.8616V20.0824C7.01746 20.5167 7.36945 20.8687 7.80366 20.8687H16.1954C16.6296 20.8687 16.9816 20.5167 16.9816 20.0824V12.8616C16.9816 12.4274 16.6296 12.0753 16.1954 12.0753Z" fill="#3971E5"/>
<path d="M12.1771 14.6859H11.751C11.4832 14.6859 11.266 14.9031 11.266 15.171V17.7714C11.266 18.0393 11.4832 18.2565 11.751 18.2565H12.1771C12.4449 18.2565 12.6621 18.0393 12.6621 17.7714V15.171C12.6621 14.9031 12.4449 14.6859 12.1771 14.6859Z" fill="white"/>
<path d="M11.9994 9.23221C12.7531 9.23239 13.4758 9.53195 14.0087 10.065C14.5416 10.5981 14.841 11.321 14.841 12.0748H16.5458C16.5532 11.473 16.4411 10.8756 16.2159 10.3174C15.9907 9.75925 15.657 9.25133 15.234 8.82312C14.8111 8.3949 14.3073 8.0549 13.752 7.82285C13.1967 7.59081 12.6009 7.47131 11.999 7.47131C11.3972 7.47131 10.8013 7.59081 10.246 7.82285C9.6907 8.0549 9.18697 8.3949 8.76403 8.82312C8.34109 9.25133 8.00735 9.75925 7.78217 10.3174C7.55699 10.8756 7.44486 11.473 7.45225 12.0748H9.15707C9.15707 11.3209 9.45652 10.5979 9.98955 10.0648C10.5226 9.5317 11.2456 9.23221 11.9994 9.23221V9.23221Z" fill="white"/>
<path d="M12.0001 9.85098C12.604 9.85098 13.1831 10.0909 13.6102 10.518C14.0372 10.945 14.2771 11.5243 14.2771 12.1282H15.6457C15.6524 11.6455 15.563 11.1663 15.3829 10.7184C15.2028 10.2706 14.9355 9.86295 14.5965 9.51926C14.2576 9.17557 13.8537 8.90266 13.4084 8.71639C12.9631 8.53013 12.4852 8.4342 12.0025 8.4342C11.5198 8.4342 11.0419 8.53013 10.5966 8.71639C10.1513 8.90266 9.74742 9.17557 9.40845 9.51926C9.06949 9.86295 8.80218 10.2706 8.62206 10.7184C8.44194 11.1663 8.35261 11.6455 8.35923 12.1282H9.72583C9.72583 11.5247 9.96536 10.9459 10.3918 10.5189C10.8182 10.0919 11.3967 9.85171 12.0001 9.85098V9.85098Z" fill="#3971E5"/>
<path d="M11.9992 9.79785C11.3953 9.79785 10.8161 10.0378 10.3891 10.4648C9.96207 10.8919 9.72217 11.4711 9.72217 12.0751H14.2762C14.2762 11.4711 14.0363 10.8919 13.6092 10.4648C13.1822 10.0378 12.6031 9.79785 11.9992 9.79785V9.79785Z" fill="white"/>
</svg>
