<svg width="24" height="24" viewBox="0 0 24 24" fill="none" xmlns="http://www.w3.org/2000/svg">
<path d="M5.24911 8.43951H4.33406C4.21105 8.43951 4.11133 8.53924 4.11133 8.66227V9.57743C4.11133 9.70046 4.21105 9.80019 4.33406 9.80019H5.24911C5.37212 9.80019 5.47184 9.70046 5.47184 9.57743V8.66227C5.47184 8.53924 5.37212 8.43951 5.24911 8.43951Z" fill="#3971E5"/>
<path d="M7.57516 8.43951H6.66011C6.5371 8.43951 6.43738 8.53924 6.43738 8.66227V9.57743C6.43738 9.70046 6.5371 9.80019 6.66011 9.80019H7.57516C7.69817 9.80019 7.79789 9.70046 7.79789 9.57743V8.66227C7.79789 8.53924 7.69817 8.43951 7.57516 8.43951Z" fill="#3971E5"/>
<path d="M5.24911 10.952H4.33406C4.21105 10.952 4.11133 11.0518 4.11133 11.1748V12.0899C4.11133 12.213 4.21105 12.3127 4.33406 12.3127H5.24911C5.37212 12.3127 5.47184 12.213 5.47184 12.0899V11.1748C5.47184 11.0518 5.37212 10.952 5.24911 10.952Z" fill="#3971E5"/>
<path d="M17.2477 3.86773H15.8127V3.03601H14.4515V3.86773H5.47196V3.03601H4.11489V3.86773H2.81162C2.70507 3.86764 2.59955 3.88857 2.50108 3.92928C2.40261 3.97 2.31314 4.02971 2.23776 4.10503C2.16239 4.18035 2.10258 4.26978 2.06178 4.36823C2.02099 4.46667 2 4.57221 2 4.67877V15.9683C2 16.0748 2.02099 16.1804 2.06178 16.2788C2.10258 16.3772 2.16239 16.4667 2.23776 16.542C2.31314 16.6173 2.40261 16.677 2.50108 16.7177C2.59955 16.7585 2.70507 16.7794 2.81162 16.7793H17.2477C17.3542 16.7794 17.4598 16.7585 17.5582 16.7177C17.6567 16.677 17.7462 16.6173 17.8215 16.542C17.8969 16.4667 17.9567 16.3772 17.9975 16.2788C18.0383 16.1804 18.0593 16.0748 18.0593 15.9683V4.68221C18.0598 4.57535 18.0391 4.46946 17.9985 4.37062C17.9579 4.27178 17.8982 4.18193 17.8228 4.10624C17.7473 4.03056 17.6577 3.97052 17.559 3.92959C17.4603 3.88866 17.3545 3.86764 17.2477 3.86773V3.86773ZM16.6733 14.7269C16.6733 14.9281 16.5934 15.1211 16.4511 15.2633C16.3089 15.4056 16.1159 15.4855 15.9148 15.4855H4.11489C3.91372 15.4855 3.7208 15.4056 3.57854 15.2633C3.43629 15.1211 3.35637 14.9281 3.35637 14.7269V7.52562C3.35637 7.32442 3.43629 7.13145 3.57854 6.98919C3.7208 6.84692 3.91372 6.76701 4.11489 6.76701H15.9065C16.1077 6.76701 16.3006 6.84692 16.4428 6.98919C16.5851 7.13145 16.665 7.32442 16.665 7.52562L16.6733 14.7269Z" fill="#8CB2FE"/>
<path d="M19.2424 20.3048C20.8022 20.3048 22.1958 19.26 22.5523 17.7414C22.6701 17.2545 22.6689 16.7464 22.5488 16.26C22.0875 14.429 19.914 13.2256 17.8632 13.9759C17.8453 11.9215 16.5531 10.1498 14.7457 9.6091C13.3376 9.18841 11.764 9.55806 10.6628 10.5305C9.52499 11.536 9.28986 12.8332 9.23538 13.2153C7.08807 13.1925 5.3738 14.5759 5.12418 16.098C4.81318 17.9786 6.69089 20.3317 9.51673 20.2869L19.2424 20.3048Z" fill="#3971E5"/>
<path d="M19.249 20.7185H19.2421L9.51922 20.7006C8.02011 20.7241 6.62303 20.111 5.6804 19.0193C4.9136 18.1303 4.55296 17.0131 4.71501 16.0303C5.00186 14.2931 6.80025 12.9269 8.88757 12.809C9.10063 11.8083 9.62694 10.9014 10.3901 10.2201C11.6141 9.13938 13.3284 8.75319 14.8654 9.21249C16.6928 9.75869 18.025 11.4525 18.2443 13.4352C19.1954 13.225 20.1903 13.3595 21.0515 13.8145C22.0107 14.3228 22.7023 15.1772 22.9499 16.1593C23.0852 16.71 23.0871 17.285 22.9554 17.8365C22.5631 19.5096 21.0046 20.7185 19.249 20.7185ZM9.51439 19.8731L19.2373 19.891H19.2428C20.6219 19.891 21.8383 18.9476 22.1438 17.6469C22.2466 17.2246 22.2466 16.7837 22.1438 16.3614C21.9535 15.6028 21.4129 14.9441 20.6605 14.5455C20.2544 14.3313 19.8079 14.2046 19.3499 14.1734C18.8918 14.1423 18.4322 14.2075 18.0009 14.3648L17.4492 14.5655L17.4444 13.9793C17.4285 12.1311 16.268 10.4973 14.622 10.0056C13.9864 9.8226 13.3149 9.80321 12.6698 9.94921C12.0247 10.0952 11.427 10.4019 10.9321 10.8407C9.99296 11.6683 9.7192 12.7214 9.63921 13.2738L9.58818 13.6324L9.22547 13.629H9.17788C7.17813 13.629 5.73005 14.9393 5.52732 16.1662C5.40457 16.9096 5.69419 17.7744 6.30239 18.48C7.08298 19.3855 8.25317 19.8937 9.50473 19.8737L9.51439 19.8731Z" fill="white"/>
</svg>