<svg width="24" height="24" viewBox="0 0 24 24" fill="none" xmlns="http://www.w3.org/2000/svg">
<path d="M4.9158 14.5398C4.0927 14.8745 3.56018 15.6168 3.56018 16.4393V18.8058C3.56018 19.6584 4.13098 20.4243 4.99894 20.7369C7.24588 21.5454 9.61221 21.9723 12 22V13.2076C9.80214 13.2061 7.3586 13.5452 4.9158 14.5398Z" fill="#3971E5"/>
<path d="M19.0843 14.5398C19.9074 14.8745 20.44 15.6168 20.44 16.4393V18.8058C20.44 19.6584 19.8692 20.4243 19.0012 20.7369C16.7543 21.5454 14.3879 21.9723 12.0001 22V13.2076C14.1995 13.2061 16.643 13.5452 19.0843 14.5398Z" fill="#3971E5"/>
<path d="M19.0843 9.6396C16.6415 8.645 14.1994 8.30585 12.0001 8.30732C9.80079 8.30879 7.35872 8.645 4.91592 9.6396C4.09283 9.97432 3.5603 10.7165 3.5603 11.539V13.9056C3.5603 14.7582 4.1311 15.5241 4.99907 15.8367C9.51455 17.5209 14.4857 17.5209 19.0012 15.8367C19.8692 15.5218 20.44 14.7582 20.44 13.9056V11.539C20.44 10.7165 19.9074 9.97432 19.0843 9.6396Z" fill="white"/>
<path d="M4.91592 8.79134C4.09283 9.12606 3.5603 9.86835 3.5603 10.6908V13.0574C3.5603 13.91 4.1311 14.6758 4.99907 14.9884C7.24605 15.7969 9.61232 16.2241 12.0001 16.2523V7.45985C9.80226 7.45764 7.35872 7.79675 4.91592 8.79134Z" fill="#8CB2FE"/>
<path d="M19.0843 8.79134C19.9074 9.12606 20.44 9.86835 20.44 10.6908V13.0574C20.44 13.91 19.8692 14.6758 19.0012 14.9884C16.7542 15.7969 14.3879 16.2241 12.0001 16.2523V7.45985C14.1995 7.45764 16.643 7.79675 19.0843 8.79134Z" fill="#8CB2FE"/>
<path d="M19.0843 4.13326C16.6415 3.13867 14.1994 2.79956 12.0001 2.80177C9.80079 2.80398 7.35872 3.13867 4.91592 4.13326C4.09283 4.46798 3.5603 5.21099 3.5603 6.03344V8.39929C3.5603 9.25264 4.1311 10.0177 4.99907 10.3311C9.51455 12.0153 14.4857 12.0153 19.0012 10.3311C19.8692 10.0162 20.44 9.25264 20.44 8.39929V6.03344C20.44 5.21099 19.9074 4.46798 19.0843 4.13326Z" fill="white"/>
<path d="M19.0842 3.33229C16.6414 2.33769 14.1993 1.99853 12 2C9.80067 2.00148 7.3586 2.33769 4.9158 3.33229C4.0927 3.66701 3.56018 4.4093 3.56018 5.23175V7.59904C3.56018 8.45165 4.13098 9.21746 4.99894 9.53011C9.51443 11.2143 14.4856 11.2143 19.0011 9.53011C19.869 9.21526 20.4398 8.45165 20.4398 7.59904V5.23247C20.4398 4.40854 19.9073 3.66627 19.0842 3.33229Z" fill="#3971E5"/>
<path d="M6.65653 8.33392C7.09933 8.33392 7.45828 7.97489 7.45828 7.53204C7.45828 7.08918 7.09933 6.73022 6.65653 6.73022C6.21373 6.73022 5.85474 7.08918 5.85474 7.53204C5.85474 7.97489 6.21373 8.33392 6.65653 8.33392Z" fill="white"/>
<path d="M6.65653 13.6289C7.09933 13.6289 7.45828 13.2699 7.45828 12.8271C7.45828 12.3842 7.09933 12.0252 6.65653 12.0252C6.21373 12.0252 5.85474 12.3842 5.85474 12.8271C5.85474 13.2699 6.21373 13.6289 6.65653 13.6289Z" fill="white"/>
<path d="M6.62036 19.2202C7.06316 19.2202 7.42211 18.8613 7.42211 18.4184C7.42211 17.9755 7.06316 17.6165 6.62036 17.6165C6.17756 17.6165 5.8186 17.9755 5.8186 18.4184C5.8186 18.8613 6.17756 19.2202 6.62036 19.2202Z" fill="white"/>
</svg>