<svg width="24" height="24" viewBox="0 0 24 24" fill="none" xmlns="http://www.w3.org/2000/svg">
<path d="M15.6224 3.59998H8.20117C6.98549 3.59998 6 4.58558 6 5.8014V16.9985C6 18.2143 6.98549 19.2 8.20117 19.2H15.6224C16.8381 19.2 17.8236 18.2143 17.8236 16.9985V5.8014C17.8236 4.58558 16.8381 3.59998 15.6224 3.59998Z" fill="#9ABBFE"/>
<path d="M12.1458 6.94525C11.4811 6.94513 10.8295 7.13093 10.2648 7.48168C9.70003 7.83244 9.24466 8.33417 8.95006 8.93016C8.65545 9.52615 8.53337 10.1927 8.59762 10.8544C8.66187 11.5161 8.90986 12.1467 9.31361 12.6749L9.70744 12.2554C9.29531 11.6773 9.10224 10.9715 9.16274 10.2641C9.22324 9.55669 9.53335 8.89387 10.0377 8.39417C10.542 7.89447 11.2076 7.59047 11.9154 7.53654C12.6233 7.4826 13.3272 7.68223 13.9014 8.09976C14.4755 8.51728 14.8825 9.12544 15.0495 9.81551C15.2164 10.5056 15.1325 11.2326 14.8127 11.8664C14.4929 12.5003 13.9581 12.9997 13.3039 13.2754C12.6497 13.5511 11.9188 13.585 11.2418 13.3712L10.9554 13.8725C11.4447 14.0452 11.9659 14.1091 12.4825 14.0595C12.999 14.01 13.4986 13.8482 13.9461 13.5855C14.3937 13.3229 14.7786 12.9657 15.0738 12.5389C15.369 12.1121 15.5675 11.6259 15.6554 11.1144C15.7433 10.6029 15.7185 10.0784 15.5827 9.57749C15.4469 9.07658 15.2034 8.61136 14.8692 8.21434C14.5349 7.81731 14.1181 7.49804 13.6477 7.27884C13.1773 7.05964 12.6648 6.9458 12.1458 6.94525V6.94525Z" fill="#3971E5"/>
<path d="M11.814 11.0054C12.1241 11.2343 12.266 11.5809 12.14 11.8021L11.245 13.3731C11.9243 13.5886 12.658 13.5552 13.315 13.279C13.9719 13.0029 14.5092 12.5019 14.8306 11.8658C15.152 11.2297 15.2365 10.4999 15.0691 9.80717C14.9017 9.1144 14.4933 8.50382 13.9169 8.0847C13.3405 7.66558 12.6338 7.46526 11.9233 7.51961C11.2127 7.57395 10.5447 7.87942 10.0387 8.38133C9.53279 8.88323 9.22195 9.54882 9.16183 10.259C9.10171 10.9692 9.29622 11.6776 9.71059 12.2574L10.9598 10.9281C11.1305 10.7427 11.5039 10.7765 11.814 11.0054Z" fill="white"/>
<path d="M9.31347 12.6768L7.48884 14.618C7.13721 14.9926 7.37186 15.7049 7.99711 16.1698C8.62301 16.6321 9.37487 16.6461 9.62932 16.2005L10.9572 13.8731C10.305 13.6419 9.734 13.2263 9.31347 12.6768V12.6768Z" fill="white"/>
<path d="M9.71012 12.2574L9.31628 12.6769C9.73663 13.2269 10.3077 13.6429 10.96 13.8745L11.2464 13.3732C10.6272 13.1771 10.0882 12.7856 9.71012 12.2574V12.2574Z" fill="white"/>
<path d="M11.2442 13.373L12.1393 11.802C12.2671 11.5814 12.1233 11.2342 11.8132 11.0053C11.5031 10.7764 11.1298 10.7425 10.9559 10.928L9.70984 12.2573C10.0874 12.7851 10.6257 13.1765 11.2442 13.373V13.373Z" fill="white"/>
<path d="M11.548 12.1077L9.39029 15.6276C9.171 15.9843 8.66723 16.0553 8.29642 15.7817C7.92561 15.508 7.84504 15.0054 8.12123 14.6908L10.8492 11.5898C10.9225 11.5143 11.0213 11.4689 11.1263 11.4624C11.2313 11.4559 11.3349 11.4887 11.417 11.5546V11.5546C11.5038 11.6139 11.5653 11.7035 11.5896 11.8058C11.6138 11.9081 11.599 12.0157 11.548 12.1077Z" fill="#3971E5"/>
<path d="M12.1457 11.3296C12.5969 11.3296 12.9627 10.9638 12.9627 10.5125C12.9627 10.0612 12.5969 9.69531 12.1457 9.69531C11.6944 9.69531 11.3286 10.0612 11.3286 10.5125C11.3286 10.9638 11.6944 11.3296 12.1457 11.3296Z" fill="#3971E5"/>
<path d="M15.258 17.1953C15.508 17.1953 15.7107 16.9926 15.7107 16.7426C15.7107 16.4926 15.508 16.2899 15.258 16.2899C15.008 16.2899 14.8054 16.4926 14.8054 16.7426C14.8054 16.9926 15.008 17.1953 15.258 17.1953Z" fill="#3971E5"/>
</svg>