<svg width="24" height="24" viewBox="0 0 24 24" fill="none" xmlns="http://www.w3.org/2000/svg">
<path d="M12.2491 12.2518L2 6.94769V17.4236C2 17.914 2.19479 18.3843 2.54152 18.7311C2.88825 19.0779 3.35851 19.2726 3.84886 19.2726H20.1511C20.6415 19.2726 21.1118 19.0779 21.4585 18.7311C21.8052 18.3843 22 17.914 22 17.4236V7.22596L12.2491 12.2518Z" fill="#3971E5"/>
<path d="M2 5.97965L12.1974 11.145L21.9963 6.19977C21.8707 5.92407 21.6805 5.68266 21.4419 5.49599C21.2032 5.30932 20.9232 5.18281 20.6254 5.12726H3.24613C2.99102 5.17615 2.74874 5.2771 2.53434 5.42376C2.31995 5.57042 2.13805 5.75961 2 5.97965V5.97965Z" fill="#8CB2FE"/>
</svg>