<svg width="24" height="24" viewBox="0 0 24 24" fill="none" xmlns="http://www.w3.org/2000/svg">
<path d="M8.78748 15.2531V19.4393H9.79951V15.2531C9.46415 15.3048 9.12284 15.3048 8.78748 15.2531V15.2531Z" fill="#9ABBFE"/>
<path d="M9.79951 8.74329V4.55469H8.78748V8.74086C9.12284 8.68914 9.46415 8.68914 9.79951 8.74329V8.74329Z" fill="#9ABBFE"/>
<path d="M12.268 10.5858L15.7295 8.23125L15.1605 7.39423L11.6984 9.75004C11.819 9.87869 11.9292 10.0167 12.028 10.1628C12.1184 10.2977 12.1986 10.439 12.268 10.5858Z" fill="#9ABBFE"/>
<path d="M16.1437 14.9454L12.4185 13.0339C12.3408 13.2711 12.2359 13.4984 12.1059 13.7114C12.059 13.7878 12.0093 13.862 11.9568 13.9339L15.6819 15.8454L16.1437 14.9454Z" fill="#9ABBFE"/>
<path d="M12.5453 11.4772C12.4695 11.0069 12.2931 10.5585 12.0283 10.1626C11.9295 10.0165 11.8193 9.8785 11.6987 9.74985C11.5877 9.63139 11.4684 9.52099 11.3417 9.41952C10.8953 9.06363 10.3637 8.83053 9.79947 8.7432C9.46411 8.69148 9.12279 8.69148 8.78743 8.7432C8.35861 8.80968 7.94725 8.96057 7.57714 9.18716C7.20703 9.41374 6.88552 9.71148 6.63126 10.0632C6.62217 10.0753 6.61188 10.0869 6.60339 10.0996C6.41623 10.3641 6.26939 10.655 6.16768 10.9626C6.11161 11.1304 6.06945 11.3025 6.04162 11.4772C5.93597 12.1346 6.03257 12.8087 6.31859 13.41C6.46297 13.7172 6.65525 13.9995 6.88822 14.2463C6.99919 14.3648 7.11848 14.4752 7.24517 14.5767C7.69162 14.9326 8.22323 15.1657 8.78743 15.253C9.12279 15.3047 9.46411 15.3047 9.79947 15.253C10.4121 15.1579 10.9853 14.8913 11.4526 14.4839C11.6409 14.3199 11.8102 14.1353 11.9574 13.9336C12.0104 13.8617 12.0601 13.7875 12.1065 13.7112C12.3333 13.3368 12.4841 12.9214 12.5501 12.4887C12.601 12.1533 12.5994 11.812 12.5453 11.4772Z" fill="#3971E5"/>
<path d="M11.4235 11.6567C11.3562 11.2326 11.163 10.8386 10.869 10.5257C10.7963 10.448 10.7182 10.3758 10.6351 10.3094C10.4074 10.1281 10.1453 9.99474 9.8646 9.91753C9.58394 9.84032 9.29052 9.82081 9.00211 9.86018C8.7137 9.89955 8.43629 9.99698 8.18658 10.1466C7.93687 10.2962 7.72008 10.4949 7.5493 10.7306C7.54385 10.7385 7.53716 10.7464 7.5311 10.7543C7.34202 11.0235 7.21628 11.332 7.16327 11.6567C7.14529 11.7695 7.13616 11.8836 7.13599 11.9979C7.13604 12.1056 7.14414 12.2132 7.16022 12.3198C7.20879 12.6347 7.32543 12.9352 7.50201 13.2004C7.56677 13.2961 7.63914 13.3865 7.71838 13.4707C8.09923 13.8792 8.62387 14.1238 9.1816 14.1529C9.73934 14.1819 10.2865 13.9932 10.7078 13.6264C10.8313 13.5181 10.9421 13.3961 11.0381 13.2628C11.0724 13.2159 11.1051 13.1675 11.1362 13.1174C11.221 12.9777 11.2897 12.8288 11.3411 12.6737C11.3798 12.5574 11.4084 12.438 11.4265 12.3167C11.4426 12.2102 11.4507 12.1026 11.4507 11.9949C11.4504 11.8816 11.4413 11.7685 11.4235 11.6567V11.6567Z" fill="white"/>
<path d="M11.4235 4.21583C11.3564 3.79155 11.1632 3.39727 10.869 3.0843C10.7963 3.0066 10.7182 2.93427 10.6351 2.86791C10.4072 2.68671 10.1449 2.5536 9.86412 2.47663C9.58335 2.39965 9.28988 2.38045 9.00146 2.4201C8.71303 2.45976 8.43564 2.55745 8.18604 2.70734C7.93645 2.85723 7.71985 3.05619 7.5493 3.29216C7.54384 3.30065 7.53716 3.30794 7.5311 3.31643C7.34182 3.58555 7.21606 3.89409 7.16327 4.21885C7.12795 4.43818 7.12691 4.66164 7.16022 4.88127C7.19109 5.09142 7.25341 5.29574 7.34507 5.48735C7.39045 5.58344 7.4429 5.67603 7.50201 5.76434C7.62711 5.9473 7.77864 6.11069 7.95166 6.2492C8.34575 6.56277 8.83721 6.72838 9.34068 6.71731C9.84415 6.70624 10.3278 6.51918 10.7078 6.18859C10.8309 6.08129 10.9417 5.96051 11.0381 5.82856C11.0726 5.78129 11.1053 5.73285 11.1362 5.68255C11.221 5.54285 11.2897 5.394 11.3411 5.23888C11.3798 5.12259 11.4084 5.00317 11.4265 4.88192C11.4598 4.66229 11.4588 4.43877 11.4235 4.21944V4.21583Z" fill="#3971E5"/>
<path d="M10.358 4.38628C10.3246 4.17424 10.2281 3.97718 10.0811 3.82081C10.0448 3.78187 10.0057 3.74561 9.96411 3.71232C9.77671 3.56355 9.54521 3.48132 9.30597 3.47847C9.06673 3.47562 8.83333 3.55231 8.64244 3.69657C8.55808 3.76097 8.48354 3.83734 8.42123 3.92326L8.41214 3.93539C8.28405 4.11749 8.21509 4.33457 8.2146 4.55721C8.21473 4.71717 8.25032 4.8751 8.31882 5.01964C8.34161 5.06759 8.36796 5.1138 8.39761 5.15784C8.42966 5.20588 8.46573 5.25106 8.50547 5.29296C8.54193 5.33176 8.58102 5.36801 8.62244 5.40145C8.7688 5.51791 8.943 5.59418 9.12784 5.62269C9.23748 5.63966 9.34907 5.63966 9.45871 5.62269C9.59916 5.60077 9.7339 5.55138 9.85525 5.47733C9.9766 5.40329 10.0822 5.30604 10.1659 5.19116C10.1829 5.16753 10.1993 5.14328 10.2144 5.11783C10.2886 4.99529 10.338 4.85941 10.3598 4.71784C10.3679 4.66468 10.3719 4.61097 10.3719 4.55721C10.3719 4.49996 10.3673 4.44278 10.358 4.38628V4.38628Z" fill="#9ABBFE"/>
<path d="M17.6332 7.34263C17.5656 6.91852 17.3724 6.52439 17.0787 6.2111C17.0061 6.13359 16.9279 6.06145 16.8448 5.9953C16.5526 5.76172 16.2043 5.6088 15.8346 5.5517C15.6151 5.51776 15.3917 5.51776 15.1722 5.5517C14.8199 5.60628 14.4867 5.7477 14.2026 5.96322C14.0339 6.09201 13.8848 6.2447 13.7602 6.41654C13.7542 6.42441 13.7475 6.43233 13.742 6.44021C13.6192 6.61341 13.523 6.80401 13.4566 7.00568C13.384 7.22443 13.347 7.45337 13.3469 7.68385C13.3462 8.00387 13.4174 8.31996 13.5554 8.6087C13.6499 8.80929 13.7759 8.99345 13.9287 9.15417C14.0013 9.23186 14.0795 9.30419 14.1626 9.37056C14.455 9.60373 14.8032 9.75642 15.1728 9.81357C15.3923 9.8475 15.6157 9.8475 15.8352 9.81357C16.2364 9.75124 16.6119 9.57666 16.9181 9.30995C17.0415 9.20244 17.1525 9.08147 17.249 8.94932C17.2829 8.90205 17.3163 8.8536 17.3466 8.8039C17.4316 8.66412 17.5003 8.51506 17.5514 8.35964C17.59 8.24348 17.6188 8.12427 17.6374 8.00328C17.653 7.8967 17.6609 7.78912 17.6611 7.68142C17.6606 7.56793 17.6513 7.45467 17.6332 7.34263V7.34263Z" fill="#3971E5"/>
<path d="M17.86 14.9119C17.8274 14.7097 17.7662 14.5131 17.6782 14.3282C17.5831 14.128 17.4571 13.9439 17.3049 13.7828C17.2321 13.7052 17.1539 13.633 17.071 13.5664C16.7786 13.3333 16.4303 13.1805 16.0608 13.1234C15.8411 13.0894 15.6175 13.0894 15.3978 13.1234C15.0454 13.1778 14.7122 13.3193 14.4282 13.5349C14.2592 13.6636 14.11 13.8164 13.9852 13.9883C13.9797 13.9961 13.9731 14.004 13.967 14.0119C13.8446 14.1852 13.7486 14.3758 13.6822 14.5773C13.6452 14.6872 13.6174 14.7998 13.5992 14.9143C13.5638 15.1336 13.5628 15.3571 13.5961 15.5768C13.6446 15.8919 13.7612 16.1926 13.9379 16.458C14.0027 16.5536 14.0748 16.644 14.1537 16.7283C14.2265 16.8059 14.3046 16.8781 14.3876 16.9446C14.68 17.1778 15.0282 17.3306 15.3978 17.3877C15.6175 17.4217 15.8411 17.4217 16.0608 17.3877C16.462 17.3254 16.8375 17.1507 17.1437 16.884C17.2669 16.7765 17.3777 16.6556 17.474 16.5235C17.5083 16.4762 17.541 16.4277 17.5721 16.378C17.6569 16.2381 17.7256 16.089 17.777 15.9337C17.8158 15.8174 17.8443 15.698 17.8624 15.5768C17.8957 15.3571 17.8947 15.1336 17.8594 14.9143L17.86 14.9119Z" fill="#3971E5"/>
<path d="M11.4235 19.1005C11.3558 18.6763 11.1627 18.2822 10.869 17.9689C10.7962 17.8916 10.718 17.8194 10.6351 17.7531C10.3426 17.52 9.9944 17.3672 9.62486 17.3095C9.40511 17.2764 9.18165 17.2764 8.9619 17.3095C8.68105 17.3534 8.41164 17.4524 8.16921 17.6008C7.92678 17.7493 7.71611 17.9442 7.5493 18.1744C7.54385 18.1822 7.53716 18.1902 7.5311 18.198C7.34202 18.4673 7.21628 18.7758 7.16327 19.1005C7.14529 19.2133 7.13616 19.3274 7.13599 19.4417C7.13604 19.5494 7.14414 19.657 7.16022 19.7635C7.19114 19.9737 7.25347 20.178 7.34507 20.3696C7.43958 20.5702 7.56562 20.7543 7.71838 20.9151C7.7908 20.9927 7.86876 21.065 7.95166 21.1314C8.24406 21.3646 8.59232 21.5173 8.9619 21.5745C9.18158 21.6084 9.40518 21.6084 9.62486 21.5745C10.0262 21.5124 10.4017 21.3377 10.7078 21.0708C10.831 20.9633 10.9417 20.8423 11.0381 20.7102C11.0724 20.6629 11.1051 20.6144 11.1362 20.5647C11.2211 20.4249 11.2898 20.2758 11.3411 20.1205C11.3798 20.0044 11.4084 19.8852 11.4265 19.7641C11.4426 19.6576 11.4507 19.55 11.4507 19.4423C11.4506 19.3278 11.4415 19.2135 11.4235 19.1005Z" fill="#3971E5"/>
<path d="M9.29553 8.70441C9.12611 8.70439 8.95694 8.71739 8.78951 8.74323C8.36068 8.80972 7.94932 8.96061 7.57921 9.18719C7.20911 9.41378 6.88759 9.71152 6.63334 10.0632C6.62425 10.0753 6.61395 10.0869 6.60547 10.0996C6.41831 10.3641 6.27147 10.655 6.16975 10.9627C6.11368 11.1305 6.07152 11.3025 6.0437 11.4772C5.93805 12.1346 6.03465 12.8087 6.32066 13.41C6.46505 13.7172 6.65732 13.9995 6.8903 14.2464C7.00126 14.3648 7.12055 14.4752 7.24724 14.5767C7.6937 14.9326 8.2253 15.1657 8.78951 15.253C8.95694 15.2789 9.12611 15.2919 9.29553 15.2919V15.2919V8.70441V8.70441Z" fill="#3971E5"/>
</svg>